<?xml version="1.0" encoding="UTF-8" standalone="no"?>
<!DOCTYPE svg PUBLIC "-//W3C//DTD SVG 1.1//EN"
 "http://www.w3.org/Graphics/SVG/1.1/DTD/svg11.dtd">
<!-- Generated by graphviz version 14.1.1 (20251213.1925)
 -->
<!-- Title: InheritanceTree Pages: 1 -->
<svg width="229pt" height="573pt"
 viewBox="0.00 0.00 229.00 573.00" xmlns="http://www.w3.org/2000/svg" xmlns:xlink="http://www.w3.org/1999/xlink">
<g id="graph0" class="graph" transform="scale(1 1) rotate(0) translate(4 568.5)">
<title>InheritanceTree</title>
<polygon fill="white" stroke="none" points="-4,4 -4,-568.5 224.75,-568.5 224.75,4 -4,4"/>
<text xml:space="preserve" text-anchor="middle" x="110.38" y="-7.2" font-family="Times New Roman,serif" font-size="14.00">simple_email &#45; Inheritance Hierarchy</text>
<!-- SE_ATTACHMENT -->
<g id="node1" class="node">
<title>SE_ATTACHMENT</title>
<path fill="none" stroke="black" d="M163.38,-60.5C163.38,-60.5 57.38,-60.5 57.38,-60.5 51.38,-60.5 45.38,-54.5 45.38,-48.5 45.38,-48.5 45.38,-36.5 45.38,-36.5 45.38,-30.5 51.38,-24.5 57.38,-24.5 57.38,-24.5 163.38,-24.5 163.38,-24.5 169.38,-24.5 175.38,-30.5 175.38,-36.5 175.38,-36.5 175.38,-48.5 175.38,-48.5 175.38,-54.5 169.38,-60.5 163.38,-60.5"/>
<text xml:space="preserve" text-anchor="middle" x="110.38" y="-37.45" font-family="Times New Roman,serif" font-size="14.00">SE_ATTACHMENT</text>
</g>
<!-- SE_MESSAGE -->
<g id="node2" class="node">
<title>SE_MESSAGE</title>
<path fill="none" stroke="black" d="M149.5,-132.5C149.5,-132.5 71.25,-132.5 71.25,-132.5 65.25,-132.5 59.25,-126.5 59.25,-120.5 59.25,-120.5 59.25,-108.5 59.25,-108.5 59.25,-102.5 65.25,-96.5 71.25,-96.5 71.25,-96.5 149.5,-96.5 149.5,-96.5 155.5,-96.5 161.5,-102.5 161.5,-108.5 161.5,-108.5 161.5,-120.5 161.5,-120.5 161.5,-126.5 155.5,-132.5 149.5,-132.5"/>
<text xml:space="preserve" text-anchor="middle" x="110.38" y="-109.45" font-family="Times New Roman,serif" font-size="14.00">SE_MESSAGE</text>
</g>
<!-- SE_SMTP_CLIENT -->
<g id="node3" class="node">
<title>SE_SMTP_CLIENT</title>
<path fill="none" stroke="black" d="M163,-204.5C163,-204.5 57.75,-204.5 57.75,-204.5 51.75,-204.5 45.75,-198.5 45.75,-192.5 45.75,-192.5 45.75,-180.5 45.75,-180.5 45.75,-174.5 51.75,-168.5 57.75,-168.5 57.75,-168.5 163,-168.5 163,-168.5 169,-168.5 175,-174.5 175,-180.5 175,-180.5 175,-192.5 175,-192.5 175,-198.5 169,-204.5 163,-204.5"/>
<text xml:space="preserve" text-anchor="middle" x="110.38" y="-181.45" font-family="Times New Roman,serif" font-size="14.00">SE_SMTP_CLIENT</text>
</g>
<!-- SE_TLS_SOCKET -->
<g id="node4" class="node">
<title>SE_TLS_SOCKET</title>
<path fill="none" stroke="black" d="M159.25,-276.5C159.25,-276.5 61.5,-276.5 61.5,-276.5 55.5,-276.5 49.5,-270.5 49.5,-264.5 49.5,-264.5 49.5,-252.5 49.5,-252.5 49.5,-246.5 55.5,-240.5 61.5,-240.5 61.5,-240.5 159.25,-240.5 159.25,-240.5 165.25,-240.5 171.25,-246.5 171.25,-252.5 171.25,-252.5 171.25,-264.5 171.25,-264.5 171.25,-270.5 165.25,-276.5 159.25,-276.5"/>
<text xml:space="preserve" text-anchor="middle" x="110.38" y="-253.45" font-family="Times New Roman,serif" font-size="14.00">SE_TLS_SOCKET</text>
</g>
<!-- SIMPLE_EMAIL -->
<g id="node5" class="node">
<title>SIMPLE_EMAIL</title>
<path fill="none" stroke="black" d="M155.88,-348.5C155.88,-348.5 64.88,-348.5 64.88,-348.5 58.88,-348.5 52.88,-342.5 52.88,-336.5 52.88,-336.5 52.88,-324.5 52.88,-324.5 52.88,-318.5 58.88,-312.5 64.88,-312.5 64.88,-312.5 155.88,-312.5 155.88,-312.5 161.88,-312.5 167.88,-318.5 167.88,-324.5 167.88,-324.5 167.88,-336.5 167.88,-336.5 167.88,-342.5 161.88,-348.5 155.88,-348.5"/>
<text xml:space="preserve" text-anchor="middle" x="110.38" y="-325.45" font-family="Times New Roman,serif" font-size="14.00">SIMPLE_EMAIL</text>
</g>
<!-- ADVERSARIAL_TESTS -->
<g id="node6" class="node">
<title>ADVERSARIAL_TESTS</title>
<path fill="none" stroke="black" d="M177.25,-420.5C177.25,-420.5 43.5,-420.5 43.5,-420.5 37.5,-420.5 31.5,-414.5 31.5,-408.5 31.5,-408.5 31.5,-396.5 31.5,-396.5 31.5,-390.5 37.5,-384.5 43.5,-384.5 43.5,-384.5 177.25,-384.5 177.25,-384.5 183.25,-384.5 189.25,-390.5 189.25,-396.5 189.25,-396.5 189.25,-408.5 189.25,-408.5 189.25,-414.5 183.25,-420.5 177.25,-420.5"/>
<text xml:space="preserve" text-anchor="middle" x="110.38" y="-397.45" font-family="Times New Roman,serif" font-size="14.00">ADVERSARIAL_TESTS</text>
</g>
<!-- STRESS_TESTS -->
<g id="node7" class="node">
<title>STRESS_TESTS</title>
<path fill="none" stroke="black" d="M153.62,-492.5C153.62,-492.5 67.12,-492.5 67.12,-492.5 61.12,-492.5 55.12,-486.5 55.12,-480.5 55.12,-480.5 55.12,-468.5 55.12,-468.5 55.12,-462.5 61.12,-456.5 67.12,-456.5 67.12,-456.5 153.62,-456.5 153.62,-456.5 159.62,-456.5 165.62,-462.5 165.62,-468.5 165.62,-468.5 165.62,-480.5 165.62,-480.5 165.62,-486.5 159.62,-492.5 153.62,-492.5"/>
<text xml:space="preserve" text-anchor="middle" x="110.38" y="-469.45" font-family="Times New Roman,serif" font-size="14.00">STRESS_TESTS</text>
</g>
<!-- TEST_RUNNER -->
<g id="node8" class="node">
<title>TEST_RUNNER</title>
<path fill="none" stroke="black" d="M153.62,-564.5C153.62,-564.5 67.12,-564.5 67.12,-564.5 61.12,-564.5 55.12,-558.5 55.12,-552.5 55.12,-552.5 55.12,-540.5 55.12,-540.5 55.12,-534.5 61.12,-528.5 67.12,-528.5 67.12,-528.5 153.62,-528.5 153.62,-528.5 159.62,-528.5 165.62,-534.5 165.62,-540.5 165.62,-540.5 165.62,-552.5 165.62,-552.5 165.62,-558.5 159.62,-564.5 153.62,-564.5"/>
<text xml:space="preserve" text-anchor="middle" x="110.38" y="-541.45" font-family="Times New Roman,serif" font-size="14.00">TEST_RUNNER</text>
</g>
</g>
</svg>
