<?xml version="1.0" encoding="UTF-8" standalone="no"?>
<!DOCTYPE svg PUBLIC "-//W3C//DTD SVG 1.1//EN"
 "http://www.w3.org/Graphics/SVG/1.1/DTD/svg11.dtd">
<!-- Generated by graphviz version 14.1.1 (20251213.1925)
 -->
<!-- Title: Dependencies Pages: 1 -->
<svg width="351pt" height="357pt"
 viewBox="0.00 0.00 351.00 357.00" xmlns="http://www.w3.org/2000/svg" xmlns:xlink="http://www.w3.org/1999/xlink">
<g id="graph0" class="graph" transform="scale(1 1) rotate(0) translate(4 352.5)">
<title>Dependencies</title>
<polygon fill="white" stroke="none" points="-4,4 -4,-352.5 347.25,-352.5 347.25,4 -4,4"/>
<text xml:space="preserve" text-anchor="middle" x="171.62" y="-7.2" font-family="Times New Roman,serif" font-size="14.00">simple_email &#45; Dependencies</text>
<!-- simple_email -->
<g id="node1" class="node">
<title>simple_email</title>
<polygon fill="lightblue" stroke="black" points="90.25,-204.5 0,-204.5 0,-168.5 90.25,-168.5 90.25,-204.5"/>
<text xml:space="preserve" text-anchor="middle" x="45.12" y="-181.45" font-family="Times New Roman,serif" font-size="14.00">simple_email</text>
</g>
<!-- simple_base64 -->
<g id="node2" class="node">
<title>simple_base64</title>
<polygon fill="lightblue" stroke="black" points="337.25,-348.5 240.25,-348.5 240.25,-312.5 337.25,-312.5 337.25,-348.5"/>
<text xml:space="preserve" text-anchor="middle" x="288.75" y="-325.45" font-family="Times New Roman,serif" font-size="14.00">simple_base64</text>
</g>
<!-- simple_email&#45;&gt;simple_base64 -->
<g id="edge1" class="edge">
<title>simple_email&#45;&gt;simple_base64</title>
<path fill="none" stroke="black" stroke-dasharray="5,2" d="M45.25,-204.74C45.25,-243.49 45.25,-330.5 45.25,-330.5 45.25,-330.5 228.25,-330.5 228.25,-330.5"/>
<polygon fill="black" stroke="black" points="228.25,-334 238.25,-330.5 228.25,-327 228.25,-334"/>
</g>
<!-- simple_encoding -->
<g id="node3" class="node">
<title>simple_encoding</title>
<polygon fill="lightblue" stroke="black" points="343.25,-276.5 234.25,-276.5 234.25,-240.5 343.25,-240.5 343.25,-276.5"/>
<text xml:space="preserve" text-anchor="middle" x="288.75" y="-253.45" font-family="Times New Roman,serif" font-size="14.00">simple_encoding</text>
</g>
<!-- simple_email&#45;&gt;simple_encoding -->
<g id="edge2" class="edge">
<title>simple_email&#45;&gt;simple_encoding</title>
<path fill="none" stroke="black" stroke-dasharray="5,2" d="M90.71,-192.5C150.6,-192.5 248.25,-192.5 248.25,-192.5 248.25,-192.5 248.25,-228.6 248.25,-228.6"/>
<polygon fill="black" stroke="black" points="244.75,-228.6 248.25,-238.6 251.75,-228.6 244.75,-228.6"/>
</g>
<!-- base -->
<g id="node4" class="node">
<title>base</title>
<polygon fill="lightgray" stroke="black" points="315.75,-204.5 261.75,-204.5 261.75,-168.5 315.75,-168.5 315.75,-204.5"/>
<text xml:space="preserve" text-anchor="middle" x="288.75" y="-181.45" font-family="Times New Roman,serif" font-size="14.00">base</text>
</g>
<!-- simple_email&#45;&gt;base -->
<g id="edge3" class="edge">
<title>simple_email&#45;&gt;base</title>
<path fill="none" stroke="black" stroke-dasharray="5,2" d="M90.66,-180.5C90.66,-180.5 250.06,-180.5 250.06,-180.5"/>
<polygon fill="black" stroke="black" points="250.06,-184 260.06,-180.5 250.06,-177 250.06,-184"/>
</g>
<!-- time -->
<g id="node5" class="node">
<title>time</title>
<polygon fill="lightgray" stroke="black" points="315.75,-132.5 261.75,-132.5 261.75,-96.5 315.75,-96.5 315.75,-132.5"/>
<text xml:space="preserve" text-anchor="middle" x="288.75" y="-109.45" font-family="Times New Roman,serif" font-size="14.00">time</text>
</g>
<!-- simple_email&#45;&gt;time -->
<g id="edge4" class="edge">
<title>simple_email&#45;&gt;time</title>
<path fill="none" stroke="black" stroke-dasharray="5,2" d="M60.25,-168.33C60.25,-147 60.25,-114.5 60.25,-114.5 60.25,-114.5 250.13,-114.5 250.13,-114.5"/>
<polygon fill="black" stroke="black" points="250.13,-118 260.13,-114.5 250.13,-111 250.13,-118"/>
</g>
<!-- net -->
<g id="node6" class="node">
<title>net</title>
<polygon fill="lightgray" stroke="black" points="315.75,-60.5 261.75,-60.5 261.75,-24.5 315.75,-24.5 315.75,-60.5"/>
<text xml:space="preserve" text-anchor="middle" x="288.75" y="-37.45" font-family="Times New Roman,serif" font-size="14.00">net</text>
</g>
<!-- simple_email&#45;&gt;net -->
<g id="edge5" class="edge">
<title>simple_email&#45;&gt;net</title>
<path fill="none" stroke="black" stroke-dasharray="5,2" d="M30.25,-168.26C30.25,-129.51 30.25,-42.5 30.25,-42.5 30.25,-42.5 250.06,-42.5 250.06,-42.5"/>
<polygon fill="black" stroke="black" points="250.06,-46 260.06,-42.5 250.06,-39 250.06,-46"/>
</g>
</g>
</svg>
